<svg width="24" height="24" viewBox="0 0 24 24" fill="none" xmlns="http://www.w3.org/2000/svg">
<path d="M12 14.25C11.1337 14.2508 10.2807 14.0368 9.51723 13.6273C8.75381 13.2178 8.10377 12.6254 7.62524 11.9032L8.87474 11.073C9.21679 11.5888 9.68118 12.0119 10.2265 12.3046C10.7718 12.5973 11.3811 12.7505 12 12.7505C12.6189 12.7505 13.2282 12.5973 13.7735 12.3046C14.3188 12.0119 14.7832 11.5888 15.1252 11.073L16.3747 11.9032C15.8962 12.6254 15.2462 13.2178 14.4828 13.6273C13.7193 14.0368 12.8663 14.2508 12 14.25Z" fill="#0F0D1C"/>
<path d="M15 6C14.7033 6 14.4133 6.08797 14.1666 6.2528C13.92 6.41762 13.7277 6.65189 13.6142 6.92598C13.5006 7.20006 13.4709 7.50166 13.5288 7.79264C13.5867 8.08361 13.7296 8.35088 13.9393 8.56066C14.1491 8.77044 14.4164 8.9133 14.7074 8.97118C14.9983 9.02906 15.2999 8.99935 15.574 8.88582C15.8481 8.77229 16.0824 8.58003 16.2472 8.33336C16.412 8.08668 16.5 7.79667 16.5 7.5C16.502 7.30246 16.4646 7.1065 16.3899 6.92361C16.3152 6.74072 16.2048 6.57456 16.0651 6.43487C15.9254 6.29518 15.7593 6.18477 15.5764 6.1101C15.3935 6.03542 15.1975 5.99799 15 6V6Z" fill="#0F0D1C"/>
<path d="M9 6C8.70333 6 8.41332 6.08797 8.16665 6.2528C7.91997 6.41762 7.72771 6.65189 7.61418 6.92598C7.50065 7.20006 7.47094 7.50166 7.52882 7.79264C7.5867 8.08361 7.72956 8.35088 7.93934 8.56066C8.14912 8.77044 8.41639 8.9133 8.70737 8.97118C8.99834 9.02906 9.29994 8.99935 9.57403 8.88582C9.84811 8.77229 10.0824 8.58003 10.2472 8.33336C10.412 8.08668 10.5 7.79667 10.5 7.5C10.502 7.30246 10.4646 7.1065 10.3899 6.92361C10.3152 6.74072 10.2048 6.57456 10.0651 6.43487C9.92544 6.29518 9.75928 6.18477 9.57639 6.1101C9.3935 6.03542 9.19754 5.99799 9 6V6Z" fill="#0F0D1C"/>
<path d="M13.302 22.5L12 21.75L15 16.5H19.5C19.6971 16.5003 19.8923 16.4617 20.0744 16.3864C20.2565 16.3111 20.422 16.2007 20.5613 16.0613C20.7007 15.922 20.8111 15.7565 20.8864 15.5744C20.9617 15.3923 21.0003 15.1971 21 15V4.5C21.0003 4.30293 20.9617 4.10775 20.8864 3.92562C20.8111 3.7435 20.7007 3.57803 20.5613 3.43868C20.422 3.29933 20.2565 3.18885 20.0744 3.11358C19.8923 3.0383 19.6971 2.9997 19.5 3H4.5C4.30293 2.9997 4.10775 3.0383 3.92562 3.11358C3.7435 3.18885 3.57803 3.29933 3.43868 3.43868C3.29933 3.57803 3.18885 3.7435 3.11358 3.92562C3.0383 4.10775 2.9997 4.30293 3 4.5V15C2.9997 15.1971 3.0383 15.3923 3.11358 15.5744C3.18885 15.7565 3.29933 15.922 3.43868 16.0613C3.57803 16.2007 3.7435 16.3111 3.92562 16.3864C4.10775 16.4617 4.30293 16.5003 4.5 16.5H11.25V18H4.5C3.70435 18 2.94129 17.6839 2.37868 17.1213C1.81607 16.5587 1.5 15.7956 1.5 15V4.5C1.4999 4.10601 1.57743 3.71585 1.72816 3.35183C1.87889 2.98781 2.09986 2.65706 2.37846 2.37846C2.65706 2.09986 2.98781 1.87889 3.35183 1.72816C3.71585 1.57743 4.10601 1.4999 4.5 1.5H19.5C19.894 1.4999 20.2841 1.57743 20.6482 1.72816C21.0122 1.87889 21.3429 2.09986 21.6215 2.37846C21.9001 2.65706 22.1211 2.98781 22.2718 3.35183C22.4226 3.71585 22.5001 4.10601 22.5 4.5V15C22.5 15.7956 22.1839 16.5587 21.6213 17.1213C21.0587 17.6839 20.2956 18 19.5 18H15.8738L13.302 22.5Z" fill="#0F0D1C"/>
</svg>
