<svg width="24" height="23" viewBox="0 0 24 23" fill="none" xmlns="http://www.w3.org/2000/svg">
<path d="M20.6667 13.0253H8.66667C8.48986 13.0253 8.32029 13.0907 8.19526 13.207C8.07024 13.3233 8 13.4811 8 13.6456C8 13.8101 8.07024 13.9678 8.19526 14.0842C8.32029 14.2005 8.48986 14.2658 8.66667 14.2658H20.6667C20.8435 14.2658 21.013 14.2005 21.1381 14.0842C21.2631 13.9678 21.3333 13.8101 21.3333 13.6456C21.3333 13.4811 21.2631 13.3233 21.1381 13.207C21.013 13.0907 20.8435 13.0253 20.6667 13.0253Z" fill="#0F0D1C"/>
<path d="M8 9.92406C8 10.0886 8.07024 10.2463 8.19526 10.3626C8.32029 10.479 8.48986 10.5443 8.66667 10.5443H20.6667C20.8435 10.5443 21.013 10.479 21.1381 10.3626C21.2631 10.2463 21.3333 10.0886 21.3333 9.92406C21.3333 9.75955 21.2631 9.60179 21.1381 9.48547C21.013 9.36915 20.8435 9.3038 20.6667 9.3038H8.66667C8.48986 9.3038 8.32029 9.36915 8.19526 9.48547C8.07024 9.60179 8 9.75955 8 9.92406Z" fill="#0F0D1C"/>
<path d="M18 16.7468H8.66667C8.48986 16.7468 8.32029 16.8122 8.19526 16.9285C8.07024 17.0448 8 17.2026 8 17.3671C8 17.5316 8.07024 17.6893 8.19526 17.8057C8.32029 17.922 8.48986 17.9873 8.66667 17.9873H18C18.1768 17.9873 18.3464 17.922 18.4714 17.8057C18.5964 17.6893 18.6667 17.5316 18.6667 17.3671C18.6667 17.2026 18.5964 17.0448 18.4714 16.9285C18.3464 16.8122 18.1768 16.7468 18 16.7468Z" fill="#0F0D1C"/>
<path d="M10.5933 5.58228C10.5933 5.41778 10.5231 5.26001 10.3981 5.14369C10.273 5.02737 10.1035 4.96202 9.92667 4.96202H6.66667V1.99101C6.66667 1.82651 6.59643 1.66875 6.4714 1.55243C6.34638 1.43611 6.17681 1.37076 6 1.37076C5.82319 1.37076 5.65362 1.43611 5.5286 1.55243C5.40357 1.66875 5.33333 1.82651 5.33333 1.99101V4.96202H1.92667C1.74986 4.96202 1.58029 5.02737 1.45526 5.14369C1.33024 5.26001 1.26 5.41778 1.26 5.58228C1.26 5.74678 1.33024 5.90454 1.45526 6.02086C1.58029 6.13718 1.74986 6.20253 1.92667 6.20253H5.33333V9.43405C5.33333 9.59855 5.40357 9.75631 5.5286 9.87263C5.65362 9.98895 5.82319 10.0543 6 10.0543C6.17681 10.0543 6.34638 9.98895 6.4714 9.87263C6.59643 9.75631 6.66667 9.59855 6.66667 9.43405V6.20253H9.92667C10.1035 6.20253 10.273 6.13718 10.3981 6.02086C10.5231 5.90454 10.5933 5.74678 10.5933 5.58228Z" fill="#0F0D1C"/>
</svg>
