<svg fill="none" height="42" viewBox="0 0 260 42" width="260" xmlns="http://www.w3.org/2000/svg"><path d="m21.1371.181226c-4.65.072832-9.2767 1.709054-13.03556 4.893754-7.517656 6.36942-9.53045 17.21002-4.80388 25.87032.29708.5443.79738.9478 1.39087 1.1219.59348.174 1.23154.1043 1.77384-.1938.54224-.2982.94428-.8004 1.11769-1.3961.1734-.5957.10397-1.2361-.19303-1.7804-3.67432-6.7323-2.12049-15.0939 3.72357-20.04536 5.844-4.95141 14.3163-5.08473 20.3114-.31875 5.9951 4.76601 7.8064 13.07471 4.3431 19.91871-3.4632 6.8441-11.2162 10.2778-18.5866 8.2297-.5958-.1656-1.2326-.0869-1.7706.2187s-.9331.8131-1.0984 1.411c-.1649.5982-.0863 1.2377.2184 1.7777.3048.5401.8108.9365 1.4068 1.102 9.4812 2.6346 19.5332-1.8147 23.9883-10.6187 4.455-8.8041 2.1064-19.577-5.6056-25.70786-3.856-3.06543-8.5303-4.555646-13.1803-4.482814z" fill="#0f0d1c" opacity=".997"/><path d="m15.5471 14.4328c-1.7821.3079-2.9346 1.6804-3.7874 3.0594-.8527 1.3789-1.4912 2.897-2.08901 3.9172-2.0577 3.5116-5.23664 7.7187-5.23664 7.7187-.18289.2419-.26266.5467-.2218.8476s.19902.5732.43973.7571c.11937.0911.25546.1578.4005.1961s.29618.0476.44478.0273c.14861-.0203.29177-.0698.42132-.1457.12954-.0759.24292-.1766.33366-.2965 0 0 3.21306-4.2352 5.38606-7.9437.7241-1.2357 1.344-2.7092 2.061-3.8688.7171-1.1595 1.4463-1.8733 2.2339-2.0093.6219-.1075.768.0172 1.1753.5781.4072.5609.8108 1.5777 1.2126 2.6937.4018 1.1161.8123 2.3307 1.4835 3.386.6712 1.0552 1.7587 2.0096 3.2161 2.0953.9917.0583 1.873-.2897 2.528-.7578s1.1349-1.032 1.5691-1.525c.4343-.493.8223-.9136 1.1738-1.161.3515-.2473.6158-.3487 1.0569-.3156 2.1294.1599 3.7143 3.3 3.7143 3.3.0603.1378.1472.2624.2555.3665s.2361.1858.3758.2403c.1398.0546.289.081.4389.0776.15-.0033.2978-.0362.4351-.0969.1373-.0606.2613-.1477.365-.2565.1038-.1087.1851-.2369.2395-.3772s.0806-.29.0773-.4405c-.0033-.1506-.0361-.2989-.0965-.4367 0 0-1.7039-4.3673-5.6352-4.6625-.9909-.0745-1.8787.2614-2.5373.725-.6587.4635-1.1383 1.0257-1.5738 1.5203-.4356.4946-.8271.9206-1.1831 1.175s-.6274.3619-1.0694.3359c-.6154-.0362-.9702-.3226-1.426-1.039-.4557-.7165-.8554-1.8049-1.2609-2.9313-.4054-1.1263-.8066-2.2925-1.513-3.2656-.7065-.9731-1.9833-1.7336-3.4076-1.4875z" fill="#0f0d1c"/><g opacity=".997"><path d="m15.9582 13.1656c-1.3709 0-2.5078 1.1397-2.5078 2.5156 0 1.376 1.1369 2.5172 2.5078 2.5172 1.3708 0 2.5062-1.1412 2.5062-2.5172 0-1.3759-1.1354-2.5156-2.5062-2.5156zm0 2.2922c.1368 0 .2226.0861.2226.2234 0 .1374-.0858.225-.2226.225s-.2242-.0876-.2242-.225c0-.1373.0874-.2234.2242-.2234z" fill="#68e0e1" opacity=".997"/><path d="m17.3226 15.682c0 .7567-.6111 1.37-1.365 1.37-.7538 0-1.3649-.6133-1.3649-1.37 0-.7566.6111-1.37 1.3649-1.37.7539 0 1.365.6134 1.365 1.37z" fill="#0f0d1c" opacity=".997"/></g><g fill="#0f0d1c"><path d="m179.52.0874939c-.232-.0000124-.462.0459321-.677.1352081s-.41.220136-.574.385107c-.164.164972-.295.360823-.384.576371-.089.21555-.134.44657-.134.67988v38.28284c0 .2333.045.4643.134.6798.089.2156.22.4114.384.5764s.359.2959.574.3851c.215.0893.445.1352.677.1352h78.346c.233 0 .463-.0459.677-.1352.215-.0892.41-.2201.575-.3851.164-.165.294-.3608.383-.5764.089-.2155.135-.4465.135-.6798v-38.28284c0-.23331-.046-.46433-.135-.67988-.089-.215548-.219-.411399-.383-.576371-.165-.164971-.36-.295831-.575-.385107-.214-.089276-.444-.1352205-.677-.1352081zm1.77 3.5515661h74.806v34.73284h-74.806z" opacity=".997"/><path d="m62.864 9.73141c.1889.29799.3509.70439.4859 1.21919.1619.4877.2429 1.0025.2429 1.5443 0 1.0567-.2294 1.8153-.6883 2.2759-.4319.4335-1.0257.6502-1.7815.6502h-8.5025v4.5923h8.8669c.2159.2981.3914.6909.5263 1.1786.162.4877.243 1.0024.243 1.5443 0 1.0296-.2295 1.7746-.6883 2.2352-.4319.4335-1.0257.6503-1.7815.6503h-7.0855v8.575c-.2969.0813-.7692.1626-1.4171.2438-.6208.0813-1.2416.122-1.8624.122s-1.1742-.0542-1.66-.1626c-.4589-.0813-.8503-.2438-1.1742-.4877-.3239-.2438-.5668-.5825-.7288-1.016s-.2429-1.0024-.2429-1.7069v-17.6784c0-1.165.3374-2.0862 1.0122-2.7635s1.5925-1.01599 2.7532-1.01599z"/><path d="m66.1207 9.12183c0-1.02954.3374-1.89653 1.0122-2.60096.7018-.70442 1.6196-1.05664 2.7532-1.05664 1.1337 0 2.038.35222 2.7128 1.05664.7018.70443 1.0527 1.57142 1.0527 2.60096 0 1.02957-.3509 1.89657-1.0527 2.60097-.6748.7044-1.5791 1.0566-2.7128 1.0566-1.1336 0-2.0514-.3522-2.7532-1.0566-.6748-.7044-1.0122-1.5714-1.0122-2.60097zm7.207 25.19677c-.297.0542-.7423.122-1.3362.2032-.5668.1084-1.1471.1626-1.741.1626-.5938 0-1.1336-.0406-1.6195-.1219-.4589-.0813-.8502-.2439-1.1742-.4877-.3239-.2438-.5803-.569-.7692-.9754-.162-.4335-.243-.9889-.243-1.6662v-16.5405c.297-.0542.7288-.1219 1.2957-.2032.5938-.1084 1.1876-.1625 1.7815-.1625.5938 0 1.1201.0406 1.579.1219.4859.0813.8907.2438 1.2146.4877.324.2438.5669.5825.7288 1.016.189.4064.2835.9482.2835 1.6256z"/><path d="m90.1405 21.8421c0-.8398-.2429-1.4494-.7288-1.8288-.4588-.4064-1.0932-.6096-1.9029-.6096-.5399 0-1.0797.0678-1.6196.2032-.5128.1355-.9582.3387-1.3361.6096v14.1021c-.2699.0813-.7018.1626-1.2956.2439-.5668.0812-1.1607.1219-1.7815.1219-.5938 0-1.1337-.0407-1.6195-.1219-.4589-.0813-.8503-.2439-1.1742-.4877-.3239-.2439-.5803-.569-.7693-.9754-.1619-.4335-.2429-.9889-.2429-1.6662v-12.192c0-.7315.1485-1.3276.4454-1.7882.3239-.4606.7558-.8805 1.2956-1.2598.9177-.6503 2.0649-1.1786 3.4415-1.585 1.4036-.4064 2.9557-.6096 4.6562-.6096 3.0501 0 5.3984.6774 7.0449 2.032 1.6466 1.3276 2.4698 3.1835 2.4698 5.5677v12.7203c-.2699.0813-.7018.1626-1.2956.2439-.5668.0812-1.1607.1219-1.7815.1219-.5938 0-1.1337-.0407-1.6195-.1219-.4589-.0813-.8503-.2439-1.1742-.4877-.3239-.2439-.5803-.569-.7693-.9754-.1619-.4335-.2429-.9889-.2429-1.6662z"/><path d="m109.736 29.9701c.459 0 .958-.0406 1.498-.1219.567-.1083.985-.2438 1.255-.4064v-3.2512l-2.915.2439c-.756.0541-1.376.2167-1.862.4876-.486.271-.729.6774-.729 1.2192 0 .5419.202.9889.607 1.3412.432.3251 1.147.4876 2.146.4876zm-.324-15.9715c1.458 0 2.78.149 3.968.4471 1.215.298 2.24.7586 3.077 1.3817.864.5961 1.525 1.3682 1.984 2.3165.459.9212.688 2.0185.688 3.2918v9.1034c0 .7044-.202 1.2869-.607 1.7475-.378.4335-.837.8128-1.376 1.1379-1.755 1.0567-4.225 1.585-7.41 1.585-1.43 0-2.726-.1355-3.887-.4064-1.133-.2709-2.119-.6773-2.955-1.2192-.81-.5419-1.444-1.2327-1.903-2.0726-.432-.8399-.648-1.8153-.648-2.9261 0-1.8695.553-3.3054 1.66-4.3079 1.107-1.0024 2.821-1.6256 5.142-1.8694l5.304-.569v-.2844c0-.7857-.351-1.3412-1.053-1.6663-.675-.3522-1.66-.5283-2.955-.5283-1.026 0-2.025.1084-2.997.3251-.971.2168-1.849.4877-2.631.8128-.351-.2438-.648-.6096-.891-1.0973-.243-.5147-.364-1.043-.364-1.5849 0-.7044.161-1.2599.485-1.6663.351-.4334.878-.7992 1.579-1.0972.783-.2981 1.701-.5148 2.754-.6503 1.079-.1354 2.092-.2032 3.036-.2032z"/><path d="m135.848 21.8421c0-.8398-.243-1.4494-.729-1.8288-.459-.4064-1.093-.6096-1.903-.6096-.54 0-1.079.0678-1.619.2032-.513.1355-.958.3387-1.336.6096v14.1021c-.27.0813-.702.1626-1.296.2439-.567.0812-1.161.1219-1.781.1219-.594 0-1.134-.0407-1.62-.1219-.459-.0813-.85-.2439-1.174-.4877-.324-.2439-.581-.569-.769-.9754-.162-.4335-.243-.9889-.243-1.6662v-12.192c0-.7315.148-1.3276.445-1.7882.324-.4606.756-.8805 1.296-1.2598.917-.6503 2.065-1.1786 3.441-1.585 1.404-.4064 2.956-.6096 4.656-.6096 3.05 0 5.399.6774 7.045 2.032 1.647 1.3276 2.47 3.1835 2.47 5.5677v12.7203c-.27.0813-.702.1626-1.296.2439-.566.0812-1.16.1219-1.781.1219-.594 0-1.134-.0407-1.62-.1219-.458-.0813-.85-.2439-1.174-.4877-.324-.2439-.58-.569-.769-.9754-.162-.4335-.243-.9889-.243-1.6662z"/><path d="m158.116 19.4444c-.675 0-1.323.1084-1.944.3251-.593.2168-1.12.5419-1.579.9754-.431.4064-.782.9211-1.052 1.5443-.27.6231-.405 1.3547-.405 2.1945 0 1.6798.472 2.9397 1.417 3.7796.972.8399 2.146 1.2598 3.522 1.2598.81 0 1.512-.0948 2.106-.2845.594-.1896 1.12-.3928 1.579-.6096.54.3793.945.7993 1.214 1.2599.27.4335.405.9618.405 1.5849 0 1.1109-.526 1.9778-1.579 2.601-1.052.596-2.51.8941-4.372.8941-1.701 0-3.239-.2439-4.616-.7316-1.377-.5147-2.564-1.2192-3.563-2.1132-.972-.9212-1.728-2.0185-2.267-3.2919-.54-1.2734-.81-2.6822-.81-4.2265 0-1.7882.283-3.3461.85-4.6736.594-1.3547 1.39-2.4655 2.389-3.3325s2.146-1.5172 3.441-1.9507c1.323-.4335 2.713-.6503 4.171-.6503 1.943 0 3.441.3522 4.494 1.0567 1.053.7044 1.579 1.612 1.579 2.7228 0 .5148-.121 1.0025-.364 1.4631-.243.4335-.527.8128-.851 1.1379-.459-.2167-1.012-.4199-1.66-.6096-.648-.2167-1.349-.3251-2.105-.3251z"/><path d="m166.63 9.12183c0-1.02954.337-1.89653 1.012-2.60096.702-.70442 1.62-1.05664 2.753-1.05664 1.134 0 2.038.35222 2.713 1.05664.702.70443 1.053 1.57142 1.053 2.60096 0 1.02957-.351 1.89657-1.053 2.60097-.675.7044-1.579 1.0566-2.713 1.0566-1.133 0-2.051-.3522-2.753-1.0566-.675-.7044-1.012-1.5714-1.012-2.60097zm7.207 25.19677c-.297.0542-.742.122-1.336.2032-.567.1084-1.147.1626-1.741.1626s-1.134-.0406-1.62-.1219c-.459-.0813-.85-.2439-1.174-.4877s-.58-.569-.769-.9754c-.162-.4335-.243-.9889-.243-1.6662v-16.5405c.297-.0542.729-.1219 1.295-.2032.594-.1084 1.188-.1625 1.782-.1625s1.12.0406 1.579.1219c.486.0813.891.2438 1.215.4877.324.2438.566.5825.728 1.016.189.4064.284.9482.284 1.6256z"/><path d="m190.205 9.89167c.459-.27093 1.147-.52832 2.065-.77216.944-.24384 1.889-.36576 2.834-.36576 1.349 0 2.537.2032 3.563.6096 1.052.37931 1.727.98895 2.024 1.82885.486 1.4088 1.012 3.048 1.579 4.9174s1.134 3.8066 1.701 5.8115c.567 1.9778 1.12 3.9421 1.66 5.8928.54 1.9236 1.012 3.6305 1.417 5.1206-.324.3794-.81.6774-1.458.8941-.648.2439-1.417.3658-2.308.3658-.647 0-1.201-.0542-1.66-.1626-.432-.1083-.796-.2709-1.093-.4877-.27-.2167-.499-.5012-.688-.8534-.162-.3522-.311-.7586-.446-1.2192l-.728-2.8042h-7.329c-.216.8129-.432 1.6527-.648 2.5197-.215.867-.431 1.7069-.647 2.5197-.378.1355-.783.2438-1.215.3251-.405.1084-.904.1626-1.498.1626-1.377 0-2.402-.2303-3.077-.6909-.648-.4877-.972-1.1515-.972-1.9914 0-.3793.054-.7586.162-1.1379s.23-.8263.364-1.3411c.189-.7315.446-1.6391.77-2.7229.351-1.0837.729-2.2487 1.133-3.495.405-1.2734.837-2.5739 1.296-3.9014.459-1.3276.891-2.5739 1.296-3.7389.405-1.1921.769-2.2488 1.093-3.1699.351-.9212.621-1.6256.81-2.11333zm4.858 5.24253c-.378 1.138-.81 2.4113-1.295 3.8202-.459 1.3818-.878 2.7906-1.256 4.2266h5.021c-.378-1.4631-.769-2.8855-1.174-4.2672-.378-1.4089-.729-2.6687-1.053-3.7796z"/><path d="m195.103 8.64844c-.954 0-1.907.12279-2.86.36875h-.001c-.923.2452-1.618.50328-2.091.78281l-.033.01875-.012.03438c-.189.48807-.459 1.19277-.81 2.11407l-.001.0016v.0015c-.324.9216-.689 1.9779-1.094 3.1703h.001c-.405 1.1651-.838 2.4115-1.297 3.7391-.459 1.3284-.891 2.6288-1.296 3.9031h.001c-.405 1.2463-.784 2.4116-1.135 3.4953v.0016c-.324 1.0846-.581 1.9931-.77 2.7266-.135.5142-.257.9607-.364 1.339-.111.3883-.165.7778-.165 1.1672 0 .8672.342 1.5698 1.013 2.075l.002.0016.001.0015c.702.4794 1.748.7094 3.137.7094.597 0 1.101-.0535 1.518-.1641l.007-.0015c.434-.0821.843-.1915 1.224-.3281l.051-.0188.014-.0531c.216-.8134.433-1.6544.649-2.5219.209-.8396.419-1.6504.628-2.4391h7.165l.708 2.7266v.0016c.136.4645.287.8748.452 1.2328l.001.0031.002.0031c.194.3628.432.6593.714.886l.002.0015.003.0016c.31.2262.686.3937 1.129.5047h.001c.47.1109 1.031.1656 1.685.1656.9 0 1.681-.1224 2.344-.3719.658-.2208 1.161-.5275 1.5-.925l.038-.0422-.016-.0546c-.405-1.4905-.876-3.1965-1.416-5.1204-.54-1.951-1.094-3.9156-1.661-5.8937-.567-2.0055-1.133-3.944-1.7-5.8141-.567-1.8704-1.095-3.5098-1.582-4.9203v-.0015c-.308-.8714-1.013-1.50392-2.084-1.89067-1.04-.41223-2.242-.61719-3.602-.61719zm0 .21094c1.339 0 2.513.20254 3.524.60312h.002.001c1.032.37166 1.674.9577 1.96 1.7641.485 1.4072 1.012 3.0456 1.579 4.914.566 1.8688 1.133 3.8051 1.699 5.8094.567 1.9775 1.12 3.9418 1.66 5.8922.532 1.8964.997 3.5736 1.398 5.0484-.308.3457-.754.6312-1.37.8375h-.002l-.001.0016c-.633.2382-1.39.3594-2.271.3594-.642 0-1.188-.0551-1.637-.161-.418-.1052-.767-.2617-1.05-.4672l-.002-.0015c-.256-.2062-.476-.4773-.658-.8172-.001-.0007-.001-.0009-.002-.0016-.158-.3442-.303-.7427-.436-1.1953l-.001-.0031-.749-2.8813h-7.491l-.02.0797c-.216.8134-.433 1.6528-.649 2.5203-.211.8466-.421 1.6662-.632 2.461-.359.1255-.739.2293-1.147.3062h-.003l-.005.0016c-.393.105-.884.1594-1.471.1594-1.365 0-2.37-.2317-3.017-.6735-.622-.4698-.926-1.0922-.926-1.9031 0-.3692.052-.739.157-1.1094.108-.3802.231-.8284.366-1.3437.188-.7296.445-1.6359.769-2.7188l-.002.0016c.351-1.0837.729-2.2475 1.133-3.4938v-.0015c.405-1.2725.837-2.5717 1.296-3.8985.458-1.3275.89-2.5741 1.295-3.739h.001c.405-1.1911.768-2.2469 1.092-3.1672l.001-.0016c.344-.9015.604-1.5831.792-2.06872.445-.25819 1.11-.51119 2.009-.75.936-.24173 1.872-.3625 2.808-.3625zm-.117 6.16872-.023.0719c-.378 1.1374-.81 2.4118-1.295 3.8203-.46 1.3839-.88 2.7963-1.258 4.2344l-.034.1328h5.292l-.034-.1328c-.378-1.4641-.77-2.8874-1.175-4.2703l.001.0015c-.378-1.4094-.729-2.6695-1.054-3.7812l-.021-.0766zm.151.2125h.089c.318 1.0933.66 2.3204 1.03 3.7v.0016.0016c.392 1.3376.772 2.7171 1.138 4.1312h-4.741c.367-1.3866.77-2.7502 1.214-4.0859v-.0016c.476-1.3815.897-2.6257 1.27-3.7469z"/><path d="m219.557 20.58c1.134 0 1.997-.2574 2.591-.7722.621-.5418.931-1.3546.931-2.4384 0-1.0295-.323-1.8152-.971-2.3571-.621-.569-1.539-.8534-2.754-.8534-.431 0-.796.0135-1.093.0406-.27 0-.553.0271-.85.0813v6.2992zm-2.105 13.0454c-.297.0813-.77.1626-1.418.2439-.62.0812-1.241.1219-1.862.1219s-1.174-.0542-1.66-.1626c-.459-.0813-.85-.2438-1.174-.4877-.324-.2438-.567-.5825-.729-1.016-.162-.4334-.243-1.0024-.243-1.7068v-19.1415c0-.5689.149-1.0024.445-1.3005.324-.32507.756-.58246 1.296-.77211.918-.32512 1.957-.55542 3.118-.69088 1.187-.16256 2.375-.24384 3.563-.24384 3.725 0 6.572.79925 8.543 2.39773 1.97 1.5985 2.955 3.766 2.955 6.5024 0 1.3276-.216 2.5333-.647 3.617-.405 1.0566-1.026 1.9778-1.863 2.7635-.81.7586-1.849 1.3547-3.118 1.7882-1.241.4064-2.685.6096-4.332.6096h-2.874z"/><path d="m218.788 8.36407c-1.193 0-2.385.08056-3.578.24375-1.166.13625-2.213.36879-3.139.69688-.551.19366-.997.45853-1.334.7969-.321.3218-.477.7875-.477 1.375v19.1422c0 .7125.081 1.2926.249 1.7437.168.4491.423.8057.765 1.0625.337.2539.744.4223 1.214.5063 0 .0001.001-.0001.001 0 .495.1102 1.055.1656 1.682.1656.625 0 1.252-.0416 1.877-.1235l-.002.0016c.65-.0816 1.125-.1628 1.432-.2469l.078-.0218v-.0813-7.3719h2.77c1.655 0 3.11-.2034 4.365-.614l.001-.0016c1.28-.4373 2.333-1.0404 3.155-1.8109.848-.7961 1.478-1.7304 1.889-2.8016.437-1.0976.655-2.3171.655-3.6562 0-2.762-1.002-4.9673-2.995-6.5844-1.996-1.61901-4.868-2.42033-8.608-2.42033zm0 .21094c3.71 0 6.531.79699 8.476 2.37499 1.947 1.58 2.917 3.7078 2.917 6.4188 0 1.316-.215 2.5082-.641 3.5781v.0015c-.4 1.0421-1.012 1.9481-1.837 2.7235-.797.7466-1.822 1.336-3.079 1.7656-1.229.4018-2.661.6047-4.298.6047h-2.981v7.4953c-.29.0744-.716.1501-1.325.2266-.617.0807-1.233.1218-1.849.1218-.615 0-1.16-.0546-1.637-.1609h-.003-.001c-.445-.0789-.821-.2359-1.13-.4687-.307-.2309-.537-.5509-.693-.9688-.155-.4158-.237-.9725-.237-1.6687v-19.1422c0-.5505.143-.9508.416-1.225.31-.31163.726-.56286 1.255-.74846.909-.322 1.942-.54966 3.096-.68438h.001c1.183-.16192 2.367-.24375 3.55-.24375zm.566 5.47809c-.43 0-.794.0136-1.094.0407-.277 0-.566.0276-.869.0828l-.087.0156v6.4937h2.253c1.149 0 2.041-.2618 2.66-.7984.647-.5648.967-1.4147.967-2.5187 0-1.0501-.335-1.8715-1.006-2.4344 0-.0003-.001.0003-.002 0-.646-.5915-1.591-.8813-2.822-.8813zm0 .211c1.198 0 2.087.2807 2.682.8265l.002.0016.001.0016c.623.5207.934 1.2677.934 2.275 0 1.0634-.3 1.8404-.895 2.3593-.568.493-1.404.7453-2.521.7453h-2.041v-6.0968c.258-.0426.509-.0719.744-.0719h.005.006c.292-.0267.654-.0406 1.083-.0406z"/><path d="m243.043 20.58c1.134 0 1.998-.2574 2.591-.7722.621-.5418.932-1.3546.932-2.4384 0-1.0295-.324-1.8152-.972-2.3571-.621-.569-1.539-.8534-2.753-.8534-.432 0-.797.0135-1.093.0406-.27 0-.554.0271-.851.0813v6.2992zm-2.105 13.0454c-.297.0813-.769.1626-1.417.2439-.621.0812-1.242.1219-1.863.1219s-1.174-.0542-1.66-.1626c-.459-.0813-.85-.2438-1.174-.4877-.324-.2438-.567-.5825-.729-1.016-.162-.4334-.243-1.0024-.243-1.7068v-19.1415c0-.5689.149-1.0024.446-1.3005.324-.32507.756-.58246 1.295-.77211.918-.32512 1.957-.55542 3.118-.69088 1.188-.16256 2.375-.24384 3.563-.24384 3.725 0 6.573.79925 8.543 2.39773 1.97 1.5985 2.956 3.766 2.956 6.5024 0 1.3276-.216 2.5333-.648 3.617-.405 1.0566-1.026 1.9778-1.863 2.7635-.809.7586-1.849 1.3547-3.117 1.7882-1.242.4064-2.686.6096-4.333.6096h-2.874z"/><path d="m242.273 8.36407c-1.192 0-2.385.08056-3.577.24375-1.167.13625-2.212.36879-3.138.69688-.552.1937-.999.45824-1.336.7969-.321.3218-.476.7875-.476 1.375v19.1422c0 .7125.082 1.2926.25 1.7437.168.4491.423.8057.764 1.0625.338.2539.744.4223 1.215.5063 0 .0001.001-.0001.001 0 .495.1102 1.055.1656 1.681.1656s1.251-.0416 1.876-.1235v.0016c.65-.0816 1.125-.1628 1.432-.2469l.078-.0218v-.0813-7.3719h2.768c1.655 0 3.112-.2034 4.366-.614v-.0016c1.28-.4373 2.333-1.0404 3.156-1.8109h.001c.848-.7961 1.478-1.7304 1.889-2.8016.437-1.0976.655-2.3171.655-3.6562 0-2.762-1.002-4.9673-2.995-6.5844-1.996-1.61901-4.87-2.42033-8.61-2.42033zm0 .21094c3.71 0 6.532.79699 8.478 2.37499 1.947 1.58 2.915 3.7078 2.915 6.4188 0 1.316-.213 2.5082-.639 3.5781v.0015h-.002c-.399 1.0421-1.01 1.9481-1.835 2.7235-.797.7466-1.822 1.336-3.079 1.7656-1.229.4018-2.663.6047-4.3.6047h-2.979v7.4953c-.291.0744-.716.1501-1.325.2266-.617.0807-1.233.1218-1.85.1218-.614 0-1.161-.0546-1.637-.1609h-.002-.003c-.445-.0789-.819-.2359-1.128-.4687-.307-.2309-.537-.5509-.693-.9688-.155-.4158-.237-.9725-.237-1.6687v-19.1422c0-.5505.141-.9508.414-1.225.311-.31163.728-.56286 1.257-.74846.908-.322 1.94-.54966 3.094-.68438h.002c1.183-.16192 2.366-.24375 3.549-.24375zm.567 5.47809c-.431 0-.793.0136-1.093.0407-.277 0-.566.0276-.869.0828l-.087.0156v6.4937h2.251c1.15 0 2.041-.2618 2.66-.7984.647-.5648.969-1.4147.969-2.5187 0-1.0514-.338-1.873-1.011-2.436 0-.0001.001-.0014 0-.0015-.646-.5897-1.592-.8782-2.82-.8782zm0 .211c1.198 0 2.086.2807 2.682.8265l.001.0016.003.0016c.623.5207.933 1.2677.933 2.275 0 1.0634-.301 1.8404-.895 2.3593-.569.4925-1.405.7453-2.522.7453h-2.039v-6.0968c.258-.0426.509-.0719.744-.0719h.005.004c.293-.0267.654-.0406 1.084-.0406z"/></g></svg>